<?xml version="1.0" encoding="UTF-8"?>
<svg xmlns="http://www.w3.org/2000/svg" xmlns:xlink="http://www.w3.org/1999/xlink" width="1500pt" height="978pt" viewBox="0 0 1500 978" version="1.1">
<g id="surface1">
<path style="fill-rule:nonzero;fill:rgb(48.627451%,48.627451%,48.627451%);fill-opacity:1;stroke-width:2;stroke-linecap:round;stroke-linejoin:round;stroke:rgb(100%,100%,100%);stroke-opacity:1;stroke-miterlimit:4;" d="M 675.401042 274.799479 L 671.901042 281.098958 L 675.098958 288.5 L 675.598958 292.799479 L 674.098958 297.799479 L 676.401042 303.598958 L 678.299479 309.200521 L 675.901042 312.401042 L 675.200521 316.401042 L 676 321.799479 L 672.401042 325.098958 L 667.401042 327 L 663.401042 330.598958 L 665.598958 336.200521 L 670.700521 337.901042 L 674.5 340.401042 L 678.401042 342.401042 L 683.901042 340.799479 L 689.200521 338 L 689.700521 345.200521 L 688.098958 351.598958 L 686.401042 354.098958 L 684.299479 355.299479 L 680.098958 354.598958 L 678.5 356.598958 L 676.299479 358.200521 L 673.799479 360.5 L 671.299479 363.700521 L 662.098958 366.598958 L 652.901042 365.799479 L 648.299479 366.901042 L 644.098958 369.901042 L 645.799479 373.401042 L 647.5 376.299479 L 644.401042 377.901042 L 641.700521 380.401042 L 638.401042 389 L 631 391.5 L 622.901042 388.5 L 619.598958 390.598958 L 621.200521 397.299479 L 616.5 400.5 L 610.700521 401 L 611.799479 408.901042 L 616.799479 409.200521 L 619.700521 411.299479 L 611.5 431.098958 L 612.700521 441.598958 L 610.401042 449.5 L 604.598958 454.598958 L 600.799479 455.299479 L 597.299479 453.700521 L 592.700521 453.901042 L 587.799479 455.5 L 579.700521 445.799479 L 580.5 430 L 577.299479 420.200521 L 569.901042 409.901042 L 567.799479 405 L 568 399.598958 L 563.5 391.401042 L 565.401042 387.098958 L 565 381.901042 L 562.299479 376.700521 L 558.700521 375.299479 L 556.901042 372.098958 L 565.200521 365.700521 L 564.5 358 L 560 349.299479 L 555.401042 333.901042 L 553.700521 319.098958 L 560.901042 318.901042 L 568.098958 317.299479 L 578.598958 318.799479 L 582.200521 316.200521 L 585.5 312.5 L 589.200521 311.598958 L 592.901042 311.700521 L 594.901042 306.799479 L 594.5 300.5 L 597 296.700521 L 600.799479 295.5 L 607.700521 291.5 L 611.299479 282.901042 L 615.5 282.299479 L 619.598958 280.799479 L 621.598958 277.700521 L 623.901042 274.901042 L 626.598958 273.700521 L 627.598958 270.799479 L 627.598958 264.299479 L 630.401042 264.901042 L 633 264.799479 L 637.401042 262.799479 L 641.401042 264.598958 L 640.700521 267.200521 L 641.799479 269.598958 L 643.401042 268.5 L 644.598958 266.401042 L 650.598958 270.5 L 654.700521 270.700521 L 658.598958 269.799479 L 662.200521 267.5 L 665.700521 268.901042 L 670.401042 272.200521 Z M 675.401042 274.799479 " transform="matrix(1.5,0,0,1.5,0,0)"/>
<path style="fill-rule:nonzero;fill:rgb(48.627451%,48.627451%,48.627451%);fill-opacity:1;stroke-width:2;stroke-linecap:round;stroke-linejoin:round;stroke:rgb(100%,100%,100%);stroke-opacity:1;stroke-miterlimit:4;" d="M 606.598958 478.5 L 620.299479 485.401042 L 634.901042 487.299479 L 639.700521 491 L 640.901042 497.700521 L 642.299479 501 L 644.700521 497.200521 L 648.098958 492.598958 L 653.598958 493.901042 L 657.401042 499.200521 L 657.200521 507.299479 L 660.401042 511.098958 L 664.401042 513.700521 L 668.5 515.700521 L 672 513.700521 L 671.200521 519.200521 L 669.901042 523.098958 L 667.700521 526 L 660.098958 528.401042 L 643.700521 527.700521 L 637.098958 533.5 L 634.901042 538.598958 L 634.299479 543.299479 L 635.401042 547.5 L 637 549.799479 L 630.901042 550.401042 L 627.5 549.401042 L 625.5 547.700521 L 621.200521 542.799479 L 619.901042 542 L 617.598958 541.799479 L 614.098958 545.200521 L 605.401042 545.5 L 601.098958 546.598958 L 596.799479 550.098958 L 593.5 551 L 592.401042 552.299479 L 591.5 554.901042 L 591.401042 558 L 591.901042 561.098958 L 593.299479 564.598958 L 592.200521 564 L 585.401042 566.299479 L 583.700521 569.901042 L 580.700521 569.799479 L 578.098958 571.299479 L 577 575.700521 L 570.598958 581.901042 L 563.598958 578.598958 L 556.299479 570.799479 L 555.299479 566.598958 L 554.700521 562.299479 L 549.098958 560.200521 L 543.5 562.901042 L 541.598958 567.098958 L 538.299479 569.5 L 535.5 569 L 532.799479 567.5 L 529.401042 569 L 526.299479 569.598958 L 520.901042 566.799479 L 521.901042 560.901042 L 525.5 552.401042 L 521.299479 543.901042 L 519.598958 541.200521 L 517.799479 539.5 L 514.799479 539.5 L 512.098958 537.700521 L 509.098958 534.098958 L 505.598958 534.200521 L 502.901042 537.299479 L 499.5 537.598958 L 496 534.598958 L 489.5 531.700521 L 488 528.700521 L 488.200521 524.5 L 486.401042 521.200521 L 483.401042 521.401042 L 480.700521 523 L 477.098958 527.5 L 472.200521 529.098958 L 463.799479 527.598958 L 458 514.401042 L 459.901042 509 L 468 503.5 L 473.401042 494.299479 L 473.901042 490.901042 L 472.098958 489 L 471.299479 487.098958 L 472.200521 484.700521 L 471 477 L 469.401042 469.598958 L 469.700521 459.700521 L 473.598958 460.098958 L 476.901042 461.598958 L 482.598958 464 L 487.901042 464 L 490.901042 466.5 L 496.098958 467.098958 L 497.598958 459.5 L 499.901042 452.5 L 505.200521 450.401042 L 510.598958 452.299479 L 518.299479 446.901042 L 523.700521 449.598958 L 523.901042 453.299479 L 523.598958 457 L 521.299479 460.401042 L 525.200521 461.5 L 530.200521 459.098958 L 534.700521 462.901042 L 541.200521 469.799479 L 545 475.098958 L 552.5 471.5 L 559.098958 465 L 560.901042 462.401042 L 563.098958 461 L 564.5 461.799479 L 575.799479 465.098958 L 584.200521 474.299479 L 588.299479 480.299479 L 592.901042 484.098958 L 599.598958 480.598958 Z M 606.598958 478.5 " transform="matrix(1.5,0,0,1.5,0,0)"/>
<path style="fill-rule:nonzero;fill:rgb(48.627451%,48.627451%,48.627451%);fill-opacity:1;stroke-width:2;stroke-linecap:round;stroke-linejoin:round;stroke:rgb(100%,100%,100%);stroke-opacity:1;stroke-miterlimit:4;" d="M 553.700521 319.098958 L 555.401042 333.901042 L 560 349.299479 L 564.5 358 L 565.200521 365.700521 L 556.901042 372.098958 L 558.700521 375.299479 L 562.299479 376.700521 L 565 381.901042 L 565.401042 387.098958 L 563.5 391.401042 L 568 399.598958 L 567.799479 405 L 569.901042 409.901042 L 577.299479 420.200521 L 580.5 430 L 579.700521 445.799479 L 587.799479 455.5 L 592.700521 453.901042 L 597.299479 453.700521 L 600.799479 455.299479 L 604.598958 454.598958 L 604.5 466.700521 L 606.700521 472.5 L 606.598958 478.5 L 599.598958 480.598958 L 592.901042 484.098958 L 588.299479 480.299479 L 584.200521 474.299479 L 575.799479 465.098958 L 564.5 461.799479 L 563.098958 461 L 560.901042 462.401042 L 559.098958 465 L 552.5 471.5 L 545 475.098958 L 541.200521 469.799479 L 534.700521 462.901042 L 530.200521 459.098958 L 525.200521 461.5 L 521.299479 460.401042 L 523.598958 457 L 523.901042 453.299479 L 523.700521 449.598958 L 518.299479 446.901042 L 510.598958 452.299479 L 505.200521 450.401042 L 499.901042 452.5 L 497.598958 459.5 L 496.098958 467.098958 L 490.901042 466.5 L 487.901042 464 L 482.598958 464 L 476.901042 461.598958 L 472.901042 455.700521 L 467 451.598958 L 461.901042 450.299479 L 456.401042 451.799479 L 453.401042 452.098958 L 451.098958 457.401042 L 448.200521 456.799479 L 448.799479 453.799479 L 447 452.401042 L 444.5 451.299479 L 442.799479 449.299479 L 441.5 450.098958 L 438.401042 447.901042 L 436 439.098958 L 438.098958 431.700521 L 443.5 429.5 L 448.098958 426.700521 L 444.598958 419.598958 L 442.799479 414.799479 L 442.598958 409.5 L 441.700521 401.901042 L 446.098958 398.700521 L 452.098958 401.200521 L 454.799479 401.598958 L 455.799479 398.5 L 455 395.700521 L 453 394.700521 L 449.299479 390.5 L 452.401042 382.799479 L 449.799479 378.401042 L 444.598958 380.098958 L 437.401042 380 L 431.200521 375.299479 L 428.5 371.598958 L 427.299479 366.799479 L 427.299479 363.901042 L 423.5 355.200521 L 426.5 354.098958 L 428 349.799479 L 425.401042 334.299479 L 426.200521 326.700521 L 434.401042 327.299479 L 442.598958 325.700521 L 450.901042 321.799479 L 458.901042 321.401042 L 461.200521 325.098958 L 463.799479 327.901042 L 470.200521 324 L 478.901042 325.700521 L 487.200521 329.401042 L 492.299479 328.901042 L 496.200521 325.901042 L 501.5 327.299479 L 504.401042 326 L 506.799479 324.401042 L 509.799479 325.598958 L 513.598958 321.299479 L 516.200521 322.5 L 518.901042 326.299479 L 522.098958 328.901042 L 524.401042 326.598958 L 523.200521 322.598958 L 527 322.901042 L 529.799479 324.700521 L 535.200521 320.598958 L 541 317.799479 L 543.901042 318.799479 L 546.901042 319.200521 L 550.299479 318.700521 Z M 553.700521 319.098958 " transform="matrix(1.5,0,0,1.5,0,0)"/>
<path style="fill-rule:nonzero;fill:rgb(48.627451%,48.627451%,48.627451%);fill-opacity:1;stroke-width:2;stroke-linecap:round;stroke-linejoin:round;stroke:rgb(100%,100%,100%);stroke-opacity:1;stroke-miterlimit:4;" d="M 330 367.098958 L 328.200521 377.401042 L 327.799479 388.299479 L 331.299479 389 L 333.200521 394.5 L 332.901042 396.598958 L 333.098958 401.5 L 334.598958 406.299479 L 334.598958 410.401042 L 337.5 411.598958 L 341.200521 418 L 338.799479 423.700521 L 339 426.799479 L 341.598958 430.598958 L 342.799479 436.5 L 342.098958 442.598958 L 341.901042 447 L 344.598958 449 L 347.098958 452 L 344.799479 455.299479 L 340.401042 456.401042 L 336.700521 459.299479 L 337.200521 468.299479 L 335.299479 473.098958 L 336.200521 479 L 338.700521 489.200521 L 336.799479 499.200521 L 335.098958 505.200521 L 332.5 512 L 326.598958 515.098958 L 322 518 L 315.200521 527.5 L 315.098958 537.401042 L 308.200521 543.598958 L 299.098958 543.901042 L 296 546.799479 L 293.200521 546.598958 L 294.401042 542.799479 L 295.098958 538.901042 L 288.799479 533.098958 L 280.799479 531.799479 L 275 532.901042 L 275.5 538.098958 L 278.401042 540.401042 L 280.799479 543.598958 L 281.200521 550.598958 L 276.5 555.5 L 273.5 554.098958 L 271.598958 550.401042 L 253.5 537.901042 L 251.799479 534.5 L 249.799479 532 L 246.700521 532.799479 L 243.901042 532.200521 L 240.401042 528.598958 L 236.5 526.098958 L 232.299479 518.200521 L 231.401042 508.5 L 228.901042 505.098958 L 227 501.200521 L 227.901042 497.700521 L 227.700521 493.401042 L 231.700521 483.901042 L 236.299479 478.598958 L 233.200521 474.901042 L 233.200521 470.098958 L 235.098958 467.598958 L 235.598958 464.200521 L 234.598958 459.799479 L 231.799479 456.799479 L 228.700521 454.299479 L 227.098958 450.098958 L 229.901042 449.401042 L 232.299479 447.700521 L 232.098958 444.901042 L 233.200521 442.901042 L 240.700521 439.799479 L 245.901042 432.098958 L 247.098958 425.700521 L 251 424.598958 L 252.799479 427.401042 L 254.901042 429.5 L 258.200521 430.598958 L 260.799479 427.401042 L 260.700521 423.799479 L 258.098958 421.700521 L 255.598958 413.598958 L 258.401042 403.799479 L 264.799479 403.098958 L 271 400.401042 L 273.598958 392.401042 L 271.098958 388.098958 L 263 389.401042 L 257 384 L 255 381 L 252.401042 378.901042 L 250.200521 374.901042 L 248.700521 370.299479 L 249.598958 365.5 L 254.299479 363.799479 L 258.700521 363.299479 L 263 364.901042 L 266.5 367.901042 L 270.401042 369 L 277.901042 364.700521 L 281.901042 364.700521 L 285.598958 362.799479 L 290 356.5 L 295.901042 354.098958 L 298.598958 353.598958 L 301.401042 352.401042 L 306 352.700521 L 310.299479 354.200521 L 312.098958 357.598958 L 313 361.401042 L 315.901042 362.799479 L 318.901042 363.700521 L 320.799479 366.401042 L 323.200521 366.5 L 326.598958 365.901042 Z M 330 367.098958 " transform="matrix(1.5,0,0,1.5,0,0)"/>
<path style="fill-rule:nonzero;fill:rgb(48.627451%,48.627451%,48.627451%);fill-opacity:1;stroke-width:2;stroke-linecap:round;stroke-linejoin:round;stroke:rgb(100%,100%,100%);stroke-opacity:1;stroke-miterlimit:4;" d="M 426.200521 324.401042 L 426.200521 326.700521 L 425.401042 334.299479 L 428 349.799479 L 426.5 354.098958 L 423.5 355.200521 L 427.299479 363.901042 L 427.299479 366.799479 L 428.5 371.598958 L 431.200521 375.299479 L 437.401042 380 L 444.598958 380.098958 L 449.799479 378.401042 L 452.401042 382.799479 L 449.299479 390.5 L 453 394.700521 L 455 395.700521 L 455.799479 398.5 L 454.799479 401.598958 L 452.098958 401.200521 L 446.098958 398.700521 L 441.700521 401.901042 L 442.598958 409.5 L 442.799479 414.799479 L 444.598958 419.598958 L 448.098958 426.700521 L 443.5 429.5 L 438.098958 431.700521 L 436 439.098958 L 438.401042 447.901042 L 441.5 450.098958 L 442.799479 449.299479 L 444.5 451.299479 L 447 452.401042 L 448.799479 453.799479 L 448.200521 456.799479 L 451.098958 457.401042 L 453.401042 452.098958 L 456.401042 451.799479 L 461.901042 450.299479 L 467 451.598958 L 472.901042 455.700521 L 476.901042 461.598958 L 473.598958 460.098958 L 469.700521 459.700521 L 469.401042 469.598958 L 471 477 L 472.200521 484.700521 L 471.299479 487.098958 L 472.098958 489 L 473.901042 490.901042 L 473.401042 494.299479 L 468 503.5 L 459.901042 509 L 455.598958 507.901042 L 452 510.299479 L 450.5 512.799479 L 448.200521 513.700521 L 445.700521 517 L 444.200521 521.700521 L 440.598958 524.598958 L 439.799479 529.299479 L 438.901042 532.598958 L 435.098958 532.299479 L 432.401042 531.098958 L 429.401042 531 L 423.401042 522.901042 L 419.098958 524.299479 L 413.799479 524.5 L 410.700521 518.799479 L 406.799479 515.200521 L 399.700521 510.700521 L 393.901042 503.098958 L 386.098958 501 L 378.299479 502 L 370 504.401042 L 362.200521 509.401042 L 354.598958 513 L 336.799479 499.200521 L 338.700521 489.200521 L 336.200521 479 L 335.299479 473.098958 L 337.200521 468.299479 L 336.700521 459.299479 L 340.401042 456.401042 L 344.799479 455.299479 L 347.098958 452 L 344.598958 449 L 341.901042 447 L 342.098958 442.598958 L 342.799479 436.5 L 341.598958 430.598958 L 339 426.799479 L 338.799479 423.700521 L 341.200521 418 L 337.5 411.598958 L 334.598958 410.401042 L 334.598958 406.299479 L 333.098958 401.5 L 332.901042 396.598958 L 333.200521 394.5 L 331.299479 389 L 327.799479 388.299479 L 328.200521 377.401042 L 330 367.098958 L 335.401042 366.799479 L 339.598958 363.799479 L 340.299479 359 L 336.200521 356.098958 L 331.299479 349.098958 L 324.401042 345.5 L 322.299479 335.5 L 328.200521 325.200521 L 334.700521 325.901042 L 344.598958 317.098958 L 350.700521 317 L 358.200521 317.901042 L 365.5 320.799479 L 370.799479 327.901042 L 377.200521 333.5 L 384.799479 335.098958 L 387.200521 334.598958 L 388.5 333 L 396.901042 333 L 405 334.901042 L 412.401042 334.098958 L 419 330.200521 L 419.5 327.5 L 421.200521 325.598958 Z M 426.200521 324.401042 " transform="matrix(1.5,0,0,1.5,0,0)"/>
<path style="fill-rule:nonzero;fill:rgb(48.627451%,48.627451%,48.627451%);fill-opacity:1;stroke-width:2;stroke-linecap:round;stroke-linejoin:round;stroke:rgb(100%,100%,100%);stroke-opacity:1;stroke-miterlimit:4;" d="M 435.098958 532.299479 L 432.299479 535.401042 L 430.5 539.598958 L 432.200521 543.299479 L 434.901042 547.200521 L 436.700521 554.299479 L 438.901042 556.598958 L 437.799479 560.799479 L 438.098958 565.700521 L 439.299479 567.700521 L 438.799479 569.299479 L 434.700521 572.299479 L 430.299479 573.401042 L 426.700521 572.700521 L 423.299479 574 L 423.401042 578.799479 L 426.200521 582.700521 L 428.799479 589.200521 L 431.901042 595.200521 L 435.700521 597.098958 L 438.5 592.700521 L 447 590.299479 L 448.799479 600.098958 L 447.799479 602.799479 L 448.598958 604.799479 L 448 610.098958 L 445.901042 614.799479 L 449.098958 620 L 447.700521 623.901042 L 449.098958 634 L 448.901042 636.299479 L 443 633.401042 L 440.598958 630.098958 L 437.200521 630.598958 L 411.098958 619.5 L 406.299479 616.5 L 404.098958 616.200521 L 399.200521 617.700521 L 393 618.200521 L 392.5 621 L 392.901042 624.700521 L 391.598958 627.799479 L 388.401042 627.598958 L 384.901042 624.5 L 379.5 617.5 L 376.401042 614.700521 L 373.5 613.299479 L 370.401042 612.799479 L 366.700521 612.799479 L 367.700521 610.700521 L 362.098958 610.799479 L 359.901042 610.299479 L 357.5 608 L 357.700521 604.799479 L 357 603.098958 L 355.401042 602.098958 L 352.5 598.401042 L 352.098958 596.700521 L 351.598958 590.700521 L 349.598958 585.200521 L 346.299479 582.200521 L 341.700521 584 L 338.098958 584.700521 L 334.901042 589.401042 L 332.5 589.901042 L 329.200521 589.401042 L 326.700521 589.598958 L 321.299479 591.200521 L 319.901042 591.401042 L 315.700521 590.901042 L 312.098958 592 L 310.598958 591.5 L 310.598958 586.700521 L 307.5 584.700521 L 304.901042 581.799479 L 302.098958 582.098958 L 299.098958 583.401042 L 296.401042 585.098958 L 277.299479 568.799479 L 281.401042 566.098958 L 284.5 562.299479 L 280.299479 559.401042 L 278.799479 556.700521 L 276.5 555.5 L 281.200521 550.598958 L 280.799479 543.598958 L 278.401042 540.401042 L 275.5 538.098958 L 275 532.901042 L 280.799479 531.799479 L 288.799479 533.098958 L 295.098958 538.901042 L 294.401042 542.799479 L 293.200521 546.598958 L 296 546.799479 L 299.098958 543.901042 L 308.200521 543.598958 L 315.098958 537.401042 L 315.200521 527.5 L 322 518 L 326.598958 515.098958 L 332.5 512 L 335.098958 505.200521 L 336.799479 499.200521 L 354.598958 513 L 362.200521 509.401042 L 370 504.401042 L 378.299479 502 L 386.098958 501 L 393.901042 503.098958 L 399.700521 510.700521 L 406.799479 515.200521 L 410.700521 518.799479 L 413.799479 524.5 L 419.098958 524.299479 L 423.401042 522.901042 L 429.401042 531 L 432.401042 531.098958 Z M 435.098958 532.299479 " transform="matrix(1.5,0,0,1.5,0,0)"/>
<path style="fill-rule:nonzero;fill:rgb(48.627451%,48.627451%,48.627451%);fill-opacity:1;stroke-width:2;stroke-linecap:round;stroke-linejoin:round;stroke:rgb(100%,100%,100%);stroke-opacity:1;stroke-miterlimit:4;" d="M 459.901042 509 L 458 514.401042 L 463.799479 527.598958 L 472.200521 529.098958 L 477.098958 527.5 L 480.700521 523 L 483.401042 521.401042 L 486.401042 521.200521 L 488.200521 524.5 L 488 528.700521 L 489.5 531.700521 L 496 534.598958 L 499.5 537.598958 L 502.901042 537.299479 L 505.598958 534.200521 L 509.098958 534.098958 L 512.098958 537.700521 L 514.799479 539.5 L 517.799479 539.5 L 519.598958 541.200521 L 521.299479 543.901042 L 525.5 552.401042 L 521.901042 560.901042 L 520.901042 566.799479 L 526.299479 569.598958 L 529.401042 569 L 532.799479 567.5 L 535.5 569 L 538.299479 569.5 L 541.598958 567.098958 L 543.5 562.901042 L 549.098958 560.200521 L 554.700521 562.299479 L 555.299479 566.598958 L 556.299479 570.799479 L 563.598958 578.598958 L 570.598958 581.901042 L 577 575.700521 L 578.098958 571.299479 L 580.700521 569.799479 L 583.700521 569.901042 L 585.401042 566.299479 L 592.200521 564 L 593.299479 564.598958 L 594.5 566.401042 L 596.799479 567.5 L 600.799479 568.799479 L 603.098958 572.200521 L 604.598958 577.700521 L 604.5 582.598958 L 605.598958 584.799479 L 608.200521 585.299479 L 609 586.299479 L 609.799479 589.098958 L 610.098958 591.5 L 609.200521 596.598958 L 607.401042 598.5 L 607.098958 600 L 608.700521 603.700521 L 611.598958 606.799479 L 611.799479 609.799479 L 610 610.700521 L 609.200521 612 L 607.401042 617.299479 L 605 622.598958 L 603.098958 625.598958 L 600.901042 625.799479 L 587.299479 629 L 585.299479 630 L 581 632.901042 L 577.401042 634.700521 L 575.598958 634.901042 L 571.299479 634.401042 L 567.299479 636.5 L 565 637 L 561.901042 635.700521 L 557.299479 630.5 L 553.700521 629.098958 L 552.098958 629.799479 L 546.098958 633.799479 L 540.598958 634.200521 L 538.799479 634.901042 L 534.598958 638.200521 L 531.299479 638 L 528 636.098958 L 526.401042 635.5 L 512.299479 634.5 L 510.200521 635.299479 L 507.901042 639.598958 L 506.5 641.401042 L 504.901042 642 L 500.799479 641.299479 L 496.700521 642 L 469.901042 650.700521 L 466.200521 651 L 462.5 650.401042 L 459.401042 648.5 L 452.598958 639.200521 L 448.901042 636.299479 L 449.098958 634 L 447.700521 623.901042 L 449.098958 620 L 445.901042 614.799479 L 448 610.098958 L 448.598958 604.799479 L 447.799479 602.799479 L 448.799479 600.098958 L 447 590.299479 L 438.5 592.700521 L 435.700521 597.098958 L 431.901042 595.200521 L 428.799479 589.200521 L 426.200521 582.700521 L 423.401042 578.799479 L 423.299479 574 L 426.700521 572.700521 L 430.299479 573.401042 L 434.700521 572.299479 L 438.799479 569.299479 L 439.299479 567.700521 L 438.098958 565.700521 L 437.799479 560.799479 L 438.901042 556.598958 L 436.700521 554.299479 L 434.901042 547.200521 L 432.200521 543.299479 L 430.5 539.598958 L 432.299479 535.401042 L 435.098958 532.299479 L 438.901042 532.598958 L 439.799479 529.299479 L 440.598958 524.598958 L 444.200521 521.700521 L 445.700521 517 L 448.200521 513.700521 L 450.5 512.799479 L 452 510.299479 L 455.598958 507.901042 Z M 459.901042 509 " transform="matrix(1.5,0,0,1.5,0,0)"/>
<path style="fill-rule:nonzero;fill:rgb(48.627451%,48.627451%,48.627451%);fill-opacity:1;stroke-width:2;stroke-linecap:round;stroke-linejoin:round;stroke:rgb(100%,100%,100%);stroke-opacity:1;stroke-miterlimit:4;" d="M 149.901042 373.5 L 146.901042 370.098958 L 137.5 362.901042 L 132.5 360.901042 L 131.799479 353.299479 L 130.700521 349.200521 L 129 345.598958 L 125.700521 343.901042 L 122.901042 341.598958 L 119.098958 337.799479 L 114.901042 335 L 119.901042 328.700521 L 126.598958 328 L 129.901042 330.299479 L 133.700521 330.901042 L 136.5 329.299479 L 138.901042 326.401042 L 139.299479 322.098958 L 137.299479 318.200521 L 145.098958 311.700521 L 145.299479 301.700521 L 149.098958 294.098958 L 151.598958 295.098958 L 153.598958 297.5 L 161.598958 302.799479 L 169.299479 305 L 177.299479 301.598958 L 184.598958 300 L 190.799479 305.700521 L 196.799479 306.098958 L 202.5 302.098958 L 200.5 307.799479 L 197.200521 314 L 188.598958 333 L 185.598958 346.299479 L 188 351 L 194.799479 367.5 L 203.200521 382.401042 L 208.200521 387.200521 L 209.799479 394.401042 L 205.799479 398.5 L 201.299479 396.5 L 194.598958 397.598958 L 190.299479 394.700521 L 192.098958 387.598958 L 188.901042 381.598958 L 187.799479 377.901042 L 187.799479 375.299479 L 181.299479 373.901042 L 178.299479 380.200521 L 174.299479 386.401042 L 168.598958 385 L 162.901042 380.5 Z M 149.901042 373.5 " transform="matrix(1.5,0,0,1.5,0,0)"/>
<path style="fill-rule:nonzero;fill:rgb(48.627451%,48.627451%,48.627451%);fill-opacity:1;stroke-width:2;stroke-linecap:round;stroke-linejoin:round;stroke:rgb(100%,100%,100%);stroke-opacity:1;stroke-miterlimit:4;" d="M 169.098958 236.200521 L 174.200521 236.401042 L 179.098958 239 L 180.401042 241.901042 L 177 242 L 174.700521 243.799479 L 174.799479 248.200521 L 177.200521 250.5 L 179.901042 252.401042 L 184.200521 256.401042 L 187.901042 261.299479 L 190.299479 266.200521 L 193.598958 269.799479 L 199.799479 266 L 206.598958 260.299479 L 209.098958 262.598958 L 211.5 265.700521 L 215.700521 265.901042 L 219.700521 264.299479 L 223.200521 259.901042 L 227.598958 257 L 233.598958 259.598958 L 249.299479 262.5 L 251.901042 263.799479 L 254.598958 265.799479 L 258.401042 263.200521 L 261.299479 258.799479 L 265.901042 258.700521 L 268.799479 261.901042 L 270 265.098958 L 272.200521 267.401042 L 273.200521 271.901042 L 272 276.5 L 275.401042 280.5 L 279.299479 284.401042 L 285.5 285.799479 L 289.098958 291.700521 L 289.5 298.799479 L 289.200521 305.901042 L 287 314.598958 L 290.200521 319.598958 L 310.401042 319.799479 L 314.200521 322 L 317.901042 324.598958 L 323 325.700521 L 328.200521 325.200521 L 322.299479 335.5 L 324.401042 345.5 L 331.299479 349.098958 L 336.200521 356.098958 L 340.299479 359 L 339.598958 363.799479 L 335.401042 366.799479 L 330 367.098958 L 326.598958 365.901042 L 323.200521 366.5 L 320.799479 366.401042 L 318.901042 363.700521 L 315.901042 362.799479 L 313 361.401042 L 312.098958 357.598958 L 310.299479 354.200521 L 306 352.700521 L 301.401042 352.401042 L 298.598958 353.598958 L 295.901042 354.098958 L 290 356.5 L 285.598958 362.799479 L 281.901042 364.700521 L 277.901042 364.700521 L 270.401042 369 L 266.5 367.901042 L 263 364.901042 L 258.700521 363.299479 L 254.299479 363.799479 L 249.598958 365.5 L 248.700521 370.299479 L 250.200521 374.901042 L 252.401042 378.901042 L 255 381 L 257 384 L 263 389.401042 L 271.098958 388.098958 L 273.598958 392.401042 L 271 400.401042 L 264.799479 403.098958 L 258.401042 403.799479 L 255.598958 413.598958 L 258.098958 421.700521 L 260.700521 423.799479 L 260.799479 427.401042 L 258.200521 430.598958 L 254.901042 429.5 L 252.799479 427.401042 L 251 424.598958 L 247.098958 425.700521 L 245.901042 432.098958 L 240.700521 439.799479 L 233.200521 442.901042 L 232.098958 444.901042 L 232.299479 447.700521 L 229.901042 449.401042 L 227.098958 450.098958 L 224.598958 450 L 222.799479 452.401042 L 219.901042 453.799479 L 216.799479 452.401042 L 211.401042 453.401042 L 207.098958 455.098958 L 201.200521 455.901042 L 198.098958 463.700521 L 192.799479 470.200521 L 184.200521 467 L 188.200521 463.901042 L 189.901042 459.299479 L 185.700521 457.200521 L 180.901042 456.901042 L 177.799479 451.299479 L 173.700521 448.098958 L 166.700521 450.098958 L 159.5 451.098958 L 157.200521 446.200521 L 162.200521 439.598958 L 164.200521 435.700521 L 167.401042 434.598958 L 169.098958 431.901042 L 166.799479 427.401042 L 163.299479 426.098958 L 160.700521 423.200521 L 159.5 421.098958 L 157.700521 420 L 152.299479 407.901042 L 148.901042 408.700521 L 145.200521 408.901042 L 142.598958 407.5 L 139.799479 407.901042 L 140.5 404 L 142.598958 400.799479 L 140.901042 391.401042 L 144.5 381.700521 L 149.901042 373.5 L 162.901042 380.5 L 168.598958 385 L 174.299479 386.401042 L 178.299479 380.200521 L 181.299479 373.901042 L 187.799479 375.299479 L 187.799479 377.901042 L 188.901042 381.598958 L 192.098958 387.598958 L 190.299479 394.700521 L 194.598958 397.598958 L 201.299479 396.5 L 205.799479 398.5 L 209.799479 394.401042 L 208.200521 387.200521 L 203.200521 382.401042 L 194.799479 367.5 L 188 351 L 185.598958 346.299479 L 188.598958 333 L 197.200521 314 L 200.5 307.799479 L 202.5 302.098958 L 196.799479 306.098958 L 190.799479 305.700521 L 184.598958 300 L 177.299479 301.598958 L 169.299479 305 L 161.598958 302.799479 L 153.598958 297.5 L 151.598958 295.098958 L 149.098958 294.098958 L 145.299479 301.700521 L 145.098958 311.700521 L 137.299479 318.200521 L 139.299479 322.098958 L 138.901042 326.401042 L 136.5 329.299479 L 133.700521 330.901042 L 129.901042 330.299479 L 126.598958 328 L 119.901042 328.700521 L 114.901042 335 L 112.5 328.5 L 109.401042 323.5 L 104.598958 324.200521 L 101.598958 323.5 L 99.901042 320.598958 L 95 320.598958 L 92.299479 315.200521 L 89.200521 311.401042 L 85.299479 313.799479 L 82.098958 311.598958 L 83.098958 304.700521 L 80.799479 303.401042 L 78.598958 307.299479 L 76 307.799479 L 74.799479 306.700521 L 73.299479 306.901042 L 71.901042 304.901042 L 71 302.200521 L 68.299479 297.901042 L 63.901042 293.901042 L 64.901042 291.401042 L 67.700521 280.901042 L 68.700521 278.098958 L 69.799479 276.299479 L 71.700521 275.098958 L 76.098958 274.098958 L 78.098958 273.299479 L 80.299479 270.200521 L 87 263.799479 L 87.799479 262.098958 L 89 258.098958 L 91.098958 255.401042 L 95.098958 253.098958 L 98.401042 248.200521 L 101.299479 241 L 103 233.700521 L 102.700521 230.901042 L 110.098958 229.200521 L 121.598958 243 L 125.700521 246.200521 L 140.598958 247.5 L 146.098958 245 L 151.098958 243.598958 L 156.200521 245.401042 L 163.299479 242.598958 Z M 169.098958 236.200521 " transform="matrix(1.5,0,0,1.5,0,0)"/>
<path style="fill-rule:nonzero;fill:rgb(48.627451%,48.627451%,48.627451%);fill-opacity:1;stroke-width:2;stroke-linecap:round;stroke-linejoin:round;stroke:rgb(100%,100%,100%);stroke-opacity:1;stroke-miterlimit:4;" d="M 114.901042 335 L 119.098958 337.799479 L 122.901042 341.598958 L 125.700521 343.901042 L 129 345.598958 L 130.700521 349.200521 L 131.799479 353.299479 L 132.5 360.901042 L 137.5 362.901042 L 146.901042 370.098958 L 149.901042 373.5 L 144.5 381.700521 L 140.901042 391.401042 L 142.598958 400.799479 L 140.5 404 L 139.799479 407.901042 L 135.401042 408.5 L 131.200521 406.200521 L 126.401042 405.401042 L 121.799479 401.401042 L 119.799479 407.299479 L 117.098958 407.700521 L 114.098958 405.700521 L 105.5 402.799479 L 101.901042 403.799479 L 92.299479 404.598958 L 85.901042 409.901042 L 81.5 410.700521 L 77.799479 408.401042 L 75.098958 403.799479 L 71.598958 400.299479 L 68 398.098958 L 65.5 394 L 62.200521 389.901042 L 59.700521 386.098958 L 60.200521 379.200521 L 57.401042 375 L 52.700521 376.401042 L 50 373.200521 L 49.401042 368.700521 L 46.598958 365.799479 L 43.598958 360.598958 L 41.5 354.401042 L 36.598958 351.799479 L 30.598958 352.401042 L 22.799479 351.200521 L 16.401042 351.700521 L 17.598958 344.098958 L 16.5 341.098958 L 20.598958 333.200521 L 22.799479 331.098958 L 22.799479 328.5 L 20.401042 326.598958 L 18.200521 323.299479 L 14.401042 314.098958 L 14.098958 312.401042 L 15.598958 310.098958 L 17 308.799479 L 21.098958 306.700521 L 22.799479 305.200521 L 25.200521 301.401042 L 26.700521 300.098958 L 31.700521 300.5 L 33.700521 298.598958 L 35.901042 297.098958 L 40.200521 296.5 L 52.200521 299.799479 L 57.098958 298.598958 L 61.901042 296.5 L 63.901042 293.901042 L 68.299479 297.901042 L 71 302.200521 L 71.901042 304.901042 L 73.299479 306.901042 L 74.799479 306.700521 L 76 307.799479 L 78.598958 307.299479 L 80.799479 303.401042 L 83.098958 304.700521 L 82.098958 311.598958 L 85.299479 313.799479 L 89.200521 311.401042 L 92.299479 315.200521 L 95 320.598958 L 99.901042 320.598958 L 101.598958 323.5 L 104.598958 324.200521 L 109.401042 323.5 L 112.5 328.5 Z M 114.901042 335 " transform="matrix(1.5,0,0,1.5,0,0)"/>
<path style="fill-rule:nonzero;fill:rgb(48.627451%,48.627451%,48.627451%);fill-opacity:1;stroke-width:2;stroke-linecap:round;stroke-linejoin:round;stroke:rgb(100%,100%,100%);stroke-opacity:1;stroke-miterlimit:4;" d="M 435.901042 232.299479 L 436.901042 236.5 L 440.401042 239 L 443.098958 244.598958 L 447.299479 247.901042 L 468.901042 248.299479 L 471.200521 252.901042 L 473.299479 258.700521 L 477.401042 260.598958 L 487.799479 261.799479 L 498.901042 261.401042 L 503.901042 262.901042 L 513.598958 264.598958 L 516.299479 273.098958 L 512.598958 285.098958 L 519.401042 292 L 522.598958 292.901042 L 524.5 296.098958 L 524.401042 301.799479 L 523 306.901042 L 519.598958 313.700521 L 523.200521 322.598958 L 524.401042 326.598958 L 522.098958 328.901042 L 518.901042 326.299479 L 516.200521 322.5 L 513.598958 321.299479 L 509.799479 325.598958 L 506.799479 324.401042 L 504.401042 326 L 501.5 327.299479 L 496.200521 325.901042 L 492.299479 328.901042 L 487.200521 329.401042 L 478.901042 325.700521 L 470.200521 324 L 463.799479 327.901042 L 461.200521 325.098958 L 458.901042 321.401042 L 450.901042 321.799479 L 442.598958 325.700521 L 434.401042 327.299479 L 426.200521 326.700521 L 426.200521 324.401042 L 424.799479 313.799479 L 420.799479 303.799479 L 414.5 299.401042 L 407.598958 296.098958 L 406.098958 293.700521 L 405.098958 290.901042 L 405.700521 287.598958 L 405 284.401042 L 403.200521 274.700521 L 411.598958 264.5 L 410.299479 257.401042 L 412.299479 248.5 L 418.299479 244.098958 L 419.401042 235.799479 L 422 229 L 429.5 230.098958 Z M 435.901042 232.299479 " transform="matrix(1.5,0,0,1.5,0,0)"/>
<path style="fill-rule:nonzero;fill:rgb(48.627451%,48.627451%,48.627451%);fill-opacity:1;stroke-width:2;stroke-linecap:round;stroke-linejoin:round;stroke:rgb(100%,100%,100%);stroke-opacity:1;stroke-miterlimit:4;" d="M 442.200521 210.598958 L 443 224.799479 L 435.901042 232.299479 L 429.5 230.098958 L 422 229 L 419.401042 235.799479 L 418.299479 244.098958 L 412.299479 248.5 L 410.299479 257.401042 L 411.598958 264.5 L 403.200521 274.700521 L 405 284.401042 L 405.700521 287.598958 L 405.098958 290.901042 L 406.098958 293.700521 L 407.598958 296.098958 L 414.5 299.401042 L 420.799479 303.799479 L 424.799479 313.799479 L 426.200521 324.401042 L 421.200521 325.598958 L 419.5 327.5 L 419 330.200521 L 412.401042 334.098958 L 405 334.901042 L 396.901042 333 L 388.5 333 L 387.200521 334.598958 L 384.799479 335.098958 L 377.200521 333.5 L 370.799479 327.901042 L 365.5 320.799479 L 358.200521 317.901042 L 350.700521 317 L 344.598958 317.098958 L 334.700521 325.901042 L 328.200521 325.200521 L 323 325.700521 L 317.901042 324.598958 L 314.200521 322 L 310.401042 319.799479 L 290.200521 319.598958 L 287 314.598958 L 289.200521 305.901042 L 289.5 298.799479 L 289.098958 291.700521 L 285.5 285.799479 L 279.299479 284.401042 L 275.401042 280.5 L 272 276.5 L 273.200521 271.901042 L 272.200521 267.401042 L 270 265.098958 L 268.799479 261.901042 L 265.901042 258.700521 L 261.299479 258.799479 L 259.098958 253 L 258.299479 246.799479 L 260.700521 245.098958 L 263.5 247.598958 L 267.5 247.598958 L 269.200521 242.700521 L 270.5 234 L 269.200521 225.5 L 277.700521 220.5 L 286.098958 216.598958 L 289.901042 219.799479 L 293.5 219 L 298.401042 221.700521 L 302.401042 222.401042 L 306.299479 221.200521 L 311 219.299479 L 315.5 218.098958 L 318.200521 214.901042 L 321.299479 211.901042 L 324.401042 211 L 327.5 211 L 330.401042 214.098958 L 332.5 218.299479 L 335.598958 221.299479 L 347.098958 224.700521 L 354.901042 225 L 356.5 227.901042 L 359 226.901042 L 364.598958 222.098958 L 367.598958 218.299479 L 368.901042 215.200521 L 370.700521 212.700521 L 372.401042 215.200521 L 374.200521 213.901042 L 376.5 210.5 L 385 204.299479 L 394.700521 203.700521 L 398.401042 204 L 404.401042 203.299479 L 407.799479 207.401042 L 412 207.200521 L 416.401042 205.901042 L 421.200521 203.799479 L 425.401042 200.700521 L 428.299479 197.901042 L 429.098958 192.200521 L 432.299479 196.598958 L 436.401042 204.901042 Z M 442.200521 210.598958 " transform="matrix(1.5,0,0,1.5,0,0)"/>
<path style="fill-rule:nonzero;fill:rgb(48.627451%,48.627451%,48.627451%);fill-opacity:1;stroke-width:2;stroke-linecap:round;stroke-linejoin:round;stroke:rgb(100%,100%,100%);stroke-opacity:1;stroke-miterlimit:4;" d="M 469.901042 120.299479 L 469.401042 121.598958 L 465.098958 124.299479 L 461.200521 127.901042 L 459 136.799479 L 454.299479 142.598958 L 455.5 149.5 L 458.098958 149.901042 L 459.401042 152 L 455.700521 159.700521 L 451.098958 165.598958 L 446.098958 170.700521 L 447.901042 175.401042 L 454.700521 175 L 456.098958 182.901042 L 459.5 189.901042 L 460.401042 198.200521 L 453.700521 204.598958 L 450.799479 206.5 L 448.200521 209 L 442.200521 210.598958 L 436.401042 204.901042 L 432.299479 196.598958 L 429.098958 192.200521 L 428.299479 197.901042 L 425.401042 200.700521 L 421.200521 203.799479 L 416.401042 205.901042 L 412 207.200521 L 407.799479 207.401042 L 404.401042 203.299479 L 398.401042 204 L 394.700521 203.700521 L 385 204.299479 L 376.5 210.5 L 374.200521 213.901042 L 372.401042 215.200521 L 370.700521 212.700521 L 368.901042 215.200521 L 367.598958 218.299479 L 364.598958 222.098958 L 359 226.901042 L 356.5 227.901042 L 354.901042 225 L 347.098958 224.700521 L 335.598958 221.299479 L 332.5 218.299479 L 330.401042 214.098958 L 327.5 211 L 324.401042 211 L 321.299479 211.901042 L 318.200521 214.901042 L 315.5 218.098958 L 311 219.299479 L 306.299479 221.200521 L 302.401042 222.401042 L 298.401042 221.700521 L 293.5 219 L 289.901042 219.799479 L 286.098958 216.598958 L 277.700521 220.5 L 269.200521 225.5 L 258.401042 221.200521 L 257 218.200521 L 258.700521 213.799479 L 261.5 207.401042 L 273.299479 202.700521 L 278 204.401042 L 279.700521 202.098958 L 282.799479 200.098958 L 288.200521 199.799479 L 293.700521 200.700521 L 301.299479 196.799479 L 302.598958 184 L 303.901042 179.799479 L 303.700521 176 L 300.799479 165.700521 L 293.401042 164.200521 L 289.098958 157.299479 L 287.299479 149.401042 L 284.098958 142.700521 L 288 138.901042 L 292.401042 133.598958 L 296.700521 129.799479 L 301.799479 130.299479 L 310.799479 125.901042 L 317.401042 115.700521 L 318.598958 105.098958 L 322 104.901042 L 324.799479 104.098958 L 333.700521 97.401042 L 339.299479 95.598958 L 344.700521 96.200521 L 377.401042 108.5 L 384.901042 109.598958 L 418.598958 107.200521 L 437.401042 114 L 458.098958 115.598958 L 464.598958 117.200521 Z M 469.901042 120.299479 " transform="matrix(1.5,0,0,1.5,0,0)"/>
<path style="fill-rule:nonzero;fill:rgb(48.627451%,48.627451%,48.627451%);fill-opacity:1;stroke-width:2;stroke-linecap:round;stroke-linejoin:round;stroke:rgb(100%,100%,100%);stroke-opacity:1;stroke-miterlimit:4;" d="M 501.299479 124.901042 L 502.5 127.401042 L 505.401042 137.098958 L 502 144.700521 L 498.5 147.401042 L 499.299479 152.200521 L 507.5 158.401042 L 507.700521 161.098958 L 510.200521 161.5 L 512.401042 159 L 514.799479 160.401042 L 513.200521 166.598958 L 512.098958 172.5 L 521 181.5 L 530.098958 185 L 532.098958 180.901042 L 536 180.901042 L 537.200521 183.5 L 539.700521 183.401042 L 542.098958 186.098958 L 545.200521 189 L 550.598958 190.598958 L 556.098958 191.098958 L 560.299479 192.098958 L 564.401042 191.901042 L 568.901042 189.598958 L 573.5 189.700521 L 574.401042 194.401042 L 575.799479 199.598958 L 581.299479 201.700521 L 587.098958 202.098958 L 593.200521 204.401042 L 597.598958 209.401042 L 594.200521 213 L 594 217.901042 L 599.200521 224.901042 L 601 232.901042 L 596.5 233.401042 L 595.401042 236.598958 L 595.5 240.299479 L 593.299479 245.098958 L 593 250.299479 L 595 255 L 596.901042 259.901042 L 597.598958 263.200521 L 599.5 265.200521 L 601.700521 266 L 601.598958 268.799479 L 598.098958 271.799479 L 598.901042 276.700521 L 605.5 278.200521 L 611.299479 282.901042 L 607.700521 291.5 L 600.799479 295.5 L 597 296.700521 L 594.5 300.5 L 594.901042 306.799479 L 592.901042 311.700521 L 589.200521 311.598958 L 585.5 312.5 L 582.200521 316.200521 L 578.598958 318.799479 L 568.098958 317.299479 L 560.901042 318.901042 L 553.700521 319.098958 L 550.299479 318.700521 L 546.901042 319.200521 L 543.901042 318.799479 L 541 317.799479 L 535.200521 320.598958 L 529.799479 324.700521 L 527 322.901042 L 523.200521 322.598958 L 519.598958 313.700521 L 523 306.901042 L 524.401042 301.799479 L 524.5 296.098958 L 522.598958 292.901042 L 519.401042 292 L 512.598958 285.098958 L 516.299479 273.098958 L 513.598958 264.598958 L 503.901042 262.901042 L 498.901042 261.401042 L 487.799479 261.799479 L 477.401042 260.598958 L 473.299479 258.700521 L 471.200521 252.901042 L 468.901042 248.299479 L 447.299479 247.901042 L 443.098958 244.598958 L 440.401042 239 L 436.901042 236.5 L 435.901042 232.299479 L 443 224.799479 L 442.200521 210.598958 L 448.200521 209 L 450.799479 206.5 L 453.700521 204.598958 L 460.401042 198.200521 L 459.5 189.901042 L 456.098958 182.901042 L 454.700521 175 L 447.901042 175.401042 L 446.098958 170.700521 L 451.098958 165.598958 L 455.700521 159.700521 L 459.401042 152 L 458.098958 149.901042 L 455.5 149.5 L 454.299479 142.598958 L 459 136.799479 L 461.200521 127.901042 L 465.098958 124.299479 L 469.401042 121.598958 L 469.901042 120.299479 L 475.901042 124.901042 L 481.700521 128.299479 L 488.700521 129.200521 L 492.299479 128.200521 L 498.901042 125.299479 Z M 501.299479 124.901042 " transform="matrix(1.5,0,0,1.5,0,0)"/>
<path style="fill-rule:nonzero;fill:rgb(48.627451%,48.627451%,48.627451%);fill-opacity:1;stroke-width:2;stroke-linecap:round;stroke-linejoin:round;stroke:rgb(100%,100%,100%);stroke-opacity:1;stroke-miterlimit:4;" d="M 204.401042 88.598958 L 206.401042 95.901042 L 204.700521 115.098958 L 202.200521 123 L 199 130.299479 L 198.598958 132.901042 L 198.901042 135.598958 L 197 138.5 L 194.200521 140.5 L 193.299479 143.799479 L 197.700521 147.700521 L 199.700521 148.401042 L 200.901042 150.5 L 202.598958 152.200521 L 204.598958 153.299479 L 204.799479 156 L 202.598958 158 L 199.901042 156.299479 L 196.098958 159.299479 L 192.5 163.5 L 189.299479 163.700521 L 186.200521 163.5 L 182.299479 161.098958 L 175.799479 164.901042 L 171 172 L 171.299479 180.401042 L 170 189 L 166.200521 194.401042 L 162.901042 200.5 L 159 205.5 L 157.598958 211.5 L 169.5 215.799479 L 179.401042 221.200521 L 177.299479 226.200521 L 173.200521 226.598958 L 168.700521 230.299479 L 169.098958 236.200521 L 163.299479 242.598958 L 156.200521 245.401042 L 151.098958 243.598958 L 146.098958 245 L 140.598958 247.5 L 125.700521 246.200521 L 121.598958 243 L 110.098958 229.200521 L 102.700521 230.901042 L 102.5 228.299479 L 99.799479 227.098958 L 92 225.401042 L 89.098958 223.700521 L 86.901042 221.401042 L 82.700521 215.598958 L 78.799479 211.799479 L 77.401042 208.5 L 76.901042 204.5 L 76.299479 202.799479 L 74.299479 199.799479 L 62.901042 188.299479 L 61.5 187.299479 L 69 180.5 L 73.200521 168.901042 L 73.200521 164.299479 L 76.401042 162.5 L 82.299479 160.200521 L 91.5 159.200521 L 100.401042 156.401042 L 101.799479 152.700521 L 100.799479 148.5 L 97.299479 147.700521 L 95.598958 144.401042 L 97.901042 132.598958 L 103.5 123.799479 L 111.200521 120.901042 L 112.901042 117.799479 L 111.200521 113.299479 L 110.098958 108.799479 L 107.098958 107.5 L 103.799479 106.700521 L 101.5 103.700521 L 104 100.5 L 107.901042 100.799479 L 111.901042 99.700521 L 113.098958 94.5 L 113.799479 86.598958 L 126.5 85.5 L 131.299479 83.401042 L 136.901042 82.200521 L 142.799479 79 L 157.299479 76.901042 L 182.700521 78.299479 L 200 87.799479 Z M 204.401042 88.598958 " transform="matrix(1.5,0,0,1.5,0,0)"/>
<path style="fill-rule:nonzero;fill:rgb(48.627451%,48.627451%,48.627451%);fill-opacity:1;stroke-width:2;stroke-linecap:round;stroke-linejoin:round;stroke:rgb(100%,100%,100%);stroke-opacity:1;stroke-miterlimit:4;" d="M 318.598958 105.098958 L 317.401042 115.700521 L 310.799479 125.901042 L 301.799479 130.299479 L 296.700521 129.799479 L 292.401042 133.598958 L 288 138.901042 L 284.098958 142.700521 L 287.299479 149.401042 L 289.098958 157.299479 L 293.401042 164.200521 L 300.799479 165.700521 L 303.700521 176 L 303.901042 179.799479 L 302.598958 184 L 301.299479 196.799479 L 293.700521 200.700521 L 288.200521 199.799479 L 282.799479 200.098958 L 279.700521 202.098958 L 278 204.401042 L 273.299479 202.700521 L 261.5 207.401042 L 258.700521 213.799479 L 257 218.200521 L 258.401042 221.200521 L 269.200521 225.5 L 270.5 234 L 269.200521 242.700521 L 267.5 247.598958 L 263.5 247.598958 L 260.700521 245.098958 L 258.299479 246.799479 L 259.098958 253 L 261.299479 258.799479 L 258.401042 263.200521 L 254.598958 265.799479 L 251.901042 263.799479 L 249.299479 262.5 L 233.598958 259.598958 L 227.598958 257 L 223.200521 259.901042 L 219.700521 264.299479 L 215.700521 265.901042 L 211.5 265.700521 L 209.098958 262.598958 L 206.598958 260.299479 L 199.799479 266 L 193.598958 269.799479 L 190.299479 266.200521 L 187.901042 261.299479 L 184.200521 256.401042 L 179.901042 252.401042 L 177.200521 250.5 L 174.799479 248.200521 L 174.700521 243.799479 L 177 242 L 180.401042 241.901042 L 179.098958 239 L 174.200521 236.401042 L 169.098958 236.200521 L 168.700521 230.299479 L 173.200521 226.598958 L 177.299479 226.200521 L 179.401042 221.200521 L 169.5 215.799479 L 157.598958 211.5 L 159 205.5 L 162.901042 200.5 L 166.200521 194.401042 L 170 189 L 171.299479 180.401042 L 171 172 L 175.799479 164.901042 L 182.299479 161.098958 L 186.200521 163.5 L 189.299479 163.700521 L 192.5 163.5 L 196.098958 159.299479 L 199.901042 156.299479 L 202.598958 158 L 204.799479 156 L 204.598958 153.299479 L 202.598958 152.200521 L 200.901042 150.5 L 199.700521 148.401042 L 197.700521 147.700521 L 193.299479 143.799479 L 194.200521 140.5 L 197 138.5 L 198.901042 135.598958 L 198.598958 132.901042 L 199 130.299479 L 202.200521 123 L 204.700521 115.098958 L 206.401042 95.901042 L 204.401042 88.598958 L 206.901042 89 L 220.401042 85.901042 L 223.901042 86.598958 L 233 92 L 290.299479 106.5 Z M 318.598958 105.098958 " transform="matrix(1.5,0,0,1.5,0,0)"/>
<path style="fill-rule:nonzero;fill:rgb(48.627451%,48.627451%,48.627451%);fill-opacity:1;stroke-width:2;stroke-linecap:round;stroke-linejoin:round;stroke:rgb(100%,100%,100%);stroke-opacity:1;stroke-miterlimit:4;" d="M 139.799479 407.901042 L 142.598958 407.5 L 145.200521 408.901042 L 148.901042 408.700521 L 152.299479 407.901042 L 157.700521 420 L 159.5 421.098958 L 160.700521 423.200521 L 163.299479 426.098958 L 166.799479 427.401042 L 169.098958 431.901042 L 167.401042 434.598958 L 164.200521 435.700521 L 162.200521 439.598958 L 157.200521 446.200521 L 159.5 451.098958 L 166.700521 450.098958 L 173.700521 448.098958 L 177.799479 451.299479 L 180.901042 456.901042 L 185.700521 457.200521 L 189.901042 459.299479 L 188.200521 463.901042 L 184.200521 467 L 176.299479 473.401042 L 167.200521 474.901042 L 147 468.401042 L 143.901042 468.901042 L 140.901042 468.598958 L 137.401042 468.598958 L 129.5 472.700521 L 125 475.901042 L 120.098958 477.401042 L 115.098958 477.901042 L 111 475 L 106.299479 473.299479 L 101.598958 473.700521 L 98.901042 469.598958 L 94.901042 469.799479 L 90.200521 477.5 L 89 481.799479 L 85.598958 481.200521 L 82.901042 484.098958 L 80.799479 486.700521 L 80.5 485.200521 L 77.901042 482.901042 L 73.401042 483.799479 L 72.098958 482.799479 L 71.200521 479.901042 L 68.901042 478.901042 L 61.598958 479.200521 L 60.5 478.799479 L 58.5 476.299479 L 53.799479 475.299479 L 44.5 470.598958 L 30.700521 460.598958 L 27.299479 457.200521 L 24.901042 452.901042 L 22.799479 446.700521 L 16.700521 442.200521 L 1 420.799479 L 4 419.200521 L 10.700521 419.098958 L 13.598958 418.200521 L 15.901042 415.098958 L 18.401042 407.200521 L 20.901042 403.901042 L 23.299479 402.799479 L 25.299479 402.299479 L 27.098958 401.098958 L 28.799479 397.598958 L 31 389.700521 L 31.5 385.200521 L 30.901042 381.901042 L 29.700521 378.901042 L 27.598958 376.401042 L 22.799479 372.799479 L 14.5 365 L 13.799479 364.700521 L 14.401042 360.401042 L 16.401042 351.700521 L 22.799479 351.200521 L 30.598958 352.401042 L 36.598958 351.799479 L 41.5 354.401042 L 43.598958 360.598958 L 46.598958 365.799479 L 49.401042 368.700521 L 50 373.200521 L 52.700521 376.401042 L 57.401042 375 L 60.200521 379.200521 L 59.700521 386.098958 L 62.200521 389.901042 L 65.5 394 L 68 398.098958 L 71.598958 400.299479 L 75.098958 403.799479 L 77.799479 408.401042 L 81.5 410.700521 L 85.901042 409.901042 L 92.299479 404.598958 L 101.901042 403.799479 L 105.5 402.799479 L 114.098958 405.700521 L 117.098958 407.700521 L 119.799479 407.299479 L 121.799479 401.401042 L 126.401042 405.401042 L 131.200521 406.200521 L 135.401042 408.5 Z M 139.799479 407.901042 " transform="matrix(1.5,0,0,1.5,0,0)"/>
<path style="fill-rule:nonzero;fill:rgb(48.627451%,48.627451%,48.627451%);fill-opacity:1;stroke-width:2;stroke-linecap:round;stroke-linejoin:round;stroke:rgb(100%,100%,100%);stroke-opacity:1;stroke-miterlimit:4;" d="M 113.799479 86.598958 L 113.098958 94.5 L 111.901042 99.700521 L 107.901042 100.799479 L 104 100.5 L 101.5 103.700521 L 103.799479 106.700521 L 107.098958 107.5 L 110.098958 108.799479 L 111.200521 113.299479 L 112.901042 117.799479 L 111.200521 120.901042 L 103.5 123.799479 L 97.901042 132.598958 L 95.598958 144.401042 L 97.299479 147.700521 L 100.799479 148.5 L 101.799479 152.700521 L 100.401042 156.401042 L 91.5 159.200521 L 82.299479 160.200521 L 76.401042 162.5 L 73.200521 164.299479 L 73.200521 168.901042 L 69 180.5 L 61.5 187.299479 L 58.098958 185.598958 L 53.5 185.5 L 52 185 L 50.700521 183.5 L 48.901042 179.799479 L 47.700521 178.5 L 46.200521 178 L 42.799479 178.200521 L 41.098958 177.799479 L 39.5 176.700521 L 36.200521 172.5 L 30.901042 170 L 28.700521 167.901042 L 27.200521 163.700521 L 24.200521 153.299479 L 22.299479 149.200521 L 22.299479 147 L 23 145.401042 L 22.098958 142.200521 L 22.799479 140.098958 L 21.5 137.401042 L 21.401042 132.299479 L 20.299479 129.401042 L 18.700521 127.799479 L 14 125.200521 L 12 123.299479 L 10.5 121 L 8.299479 115.401042 L 7.5 110.700521 L 8.098958 107 L 7.901042 105.299479 L 3.799479 100.299479 L 1.700521 94.299479 L 2.5 89.5 L 4.598958 84.401042 L 6.098958 77.598958 L 6.401042 71 L 8.901042 65.901042 L 9.299479 62.401042 L 9.299479 56 L 9.700521 53.299479 L 11.598958 50.200521 L 15.200521 48.700521 L 22.799479 47.5 L 26.299479 47.401042 L 28.098958 45.098958 L 29.299479 41.901042 L 31.200521 39.098958 L 34.401042 37.901042 L 37.700521 38.200521 L 40.5 37.598958 L 42.401042 34.200521 L 42.401042 32.200521 L 41.401042 27.5 L 41.5 22.799479 L 43.200521 16.200521 L 42.401042 14.401042 L 42.598958 13 L 45.598958 9.700521 L 48 5.700521 L 49.401042 4.200521 L 56.299479 1 L 90.5 24.5 L 96.299479 27 L 103.5 28 L 110.401042 31.098958 L 111.799479 37.901042 L 109.098958 44.799479 L 103.5 47.901042 L 100.098958 48.299479 L 93.700521 50.401042 L 90.401042 50.901042 L 87.200521 53 L 85.5 58 L 81.598958 74.598958 L 81.700521 79.598958 L 83.700521 83.799479 L 87.700521 87.299479 L 92.598958 88.5 Z M 113.799479 86.598958 " transform="matrix(1.5,0,0,1.5,0,0)"/>
<path style="fill-rule:nonzero;fill:rgb(48.627451%,48.627451%,48.627451%);fill-opacity:1;stroke-width:2;stroke-linecap:round;stroke-linejoin:round;stroke:rgb(100%,100%,100%);stroke-opacity:1;stroke-miterlimit:4;" d="M 884.299479 305 L 884.200521 308.5 L 885.5 313.200521 L 886.401042 318.901042 L 886.401042 329.299479 L 885.598958 334.901042 L 877.401042 335.299479 L 868.901042 333.901042 L 861.799479 333.700521 L 860.098958 334 L 859 335.299479 L 857.401042 340.700521 L 857.598958 342.700521 L 858.799479 344.299479 L 861.200521 345.598958 L 857 346.299479 L 850 349.401042 L 846.401042 350 L 843.5 352.598958 L 843.799479 358.299479 L 845.598958 364.299479 L 847 367.901042 L 844.401042 366.700521 L 829.5 366.299479 L 824.901042 369 L 822.799479 373.5 L 821.700521 378.799479 L 819.901042 384.200521 L 817 382.799479 L 815.5 384.799479 L 815.598958 388 L 817.598958 390.098958 L 816.799479 392.700521 L 817.598958 393.200521 L 818.700521 388.799479 L 823.700521 394.098958 L 825.299479 394.598958 L 827.200521 392.700521 L 828.5 390.200521 L 830.098958 389.200521 L 832.901042 391.700521 L 834.401042 389.5 L 835.700521 389.799479 L 838.299479 391.700521 L 840.5 391.098958 L 843.700521 389.5 L 845.901042 390.098958 L 844.799479 391.700521 L 845.700521 395.5 L 847.299479 398.098958 L 849.799479 398.700521 L 853.598958 396 L 853.901042 398.098958 L 854.799479 399.098958 L 858 399 L 858 400.598958 L 854.598958 402.098958 L 855.799479 404.200521 L 858 405 L 856.401042 407.200521 L 856.299479 410.098958 L 857.200521 413.098958 L 859 415.299479 L 861.401042 416.299479 L 865.200521 415.5 L 867.700521 415.299479 L 867.700521 416.700521 L 866.799479 419.098958 L 868.901042 421.401042 L 865 424.700521 L 863.098958 428.700521 L 863.799479 432.700521 L 867.700521 436 L 866.700521 437.598958 L 872.401042 441.299479 L 874.098958 444.299479 L 878 448.299479 L 879.799479 449.299479 L 878.700521 452.401042 L 883.5 455.200521 L 884.700521 456.598958 L 887.401042 462.598958 L 896 468.098958 L 898.401042 472.098958 L 900.598958 472.799479 L 900 475.200521 L 900.700521 477.200521 L 903.901042 480.200521 L 902.799479 481.799479 L 904.598958 483.700521 L 905.799479 486.5 L 906 489.5 L 905 492.098958 L 905.401042 494.200521 L 899.700521 492.901042 L 897.299479 492.200521 L 889.5 493.098958 L 887.401042 492.401042 L 883.098958 490.299479 L 879.200521 489.299479 L 872.098958 489.700521 L 871.700521 491.901042 L 871.299479 496.901042 L 873.799479 498.401042 L 873.299479 499.799479 L 871.299479 500.5 L 869.200521 500.598958 L 867.098958 499.901042 L 858.700521 495.299479 L 852.901042 495.098958 L 840.5 498.299479 L 840.098958 500.5 L 838.700521 501.5 L 837.5 500.598958 L 836.200521 502.299479 L 834.5 503.401042 L 831.098958 504.598958 L 832.700521 506 L 830.799479 507.5 L 833 508.401042 L 830.401042 509.5 L 828.299479 508.098958 L 824.5 502.700521 L 822.098958 500.598958 L 810.401042 494 L 806.598958 490.598958 L 803.098958 486.5 L 796.299479 476 L 792 471.700521 L 786.901042 468.598958 L 781.299479 467.299479 L 777.799479 467.799479 L 775.799479 469.401042 L 771 476.098958 L 767.200521 475 L 761.799479 475 L 759.299479 473 L 756.598958 471.5 L 753.700521 470.598958 L 750.901042 470.5 L 750.799479 468.200521 L 752.098958 460.299479 L 748.700521 454.5 L 746.5 448.700521 L 748 442.401042 L 749.700521 438 L 749.098958 434.200521 L 749.098958 429.200521 L 751.299479 425.5 L 756.598958 422.401042 L 757.598958 415.700521 L 754.5 409.700521 L 749.700521 406.700521 L 744.700521 406.598958 L 740.098958 404.901042 L 738.299479 401.299479 L 737 397.401042 L 722.598958 386.700521 L 722.401042 382.299479 L 719 380.299479 L 712.799479 372.5 L 711.401042 370.5 L 711.098958 367.700521 L 709.901042 364.901042 L 707.799479 363 L 705.901042 357.5 L 704.598958 351.401042 L 698.598958 339.5 L 689.200521 338 L 683.901042 340.799479 L 678.401042 342.401042 L 674.5 340.401042 L 670.700521 337.901042 L 665.598958 336.200521 L 663.401042 330.598958 L 667.401042 327 L 672.401042 325.098958 L 676 321.799479 L 675.200521 316.401042 L 675.901042 312.401042 L 678.299479 309.200521 L 676.401042 303.598958 L 674.098958 297.799479 L 675.598958 292.799479 L 675.098958 288.5 L 686.700521 285.5 L 688.401042 288.799479 L 688.200521 293.598958 L 693.799479 296.098958 L 700 294.901042 L 705.401042 291.799479 L 708.799479 285.200521 L 711.598958 283.401042 L 714.700521 283.598958 L 723.799479 282.799479 L 728.799479 286.200521 L 734 285.098958 L 740.401042 284.901042 L 747.098958 287.401042 L 754.799479 285.299479 L 762.299479 281.901042 L 771.5 279.901042 L 781 274.401042 L 788.700521 276.901042 L 795 283.098958 L 800 291.098958 L 803.401042 292.401042 L 807.098958 292.799479 L 814.401042 297.200521 L 822.299479 298.901042 L 836.299479 295.401042 L 842.299479 291.598958 L 846.598958 292.901042 L 850.700521 295.401042 L 854.5 299.098958 L 857.901042 303.5 L 862.098958 306.5 L 866.5 308.799479 L 871.200521 310.598958 L 875.901042 309.598958 L 879.299479 306.5 L 883.098958 305 Z M 884.299479 305 " transform="matrix(1.5,0,0,1.5,0,0)"/>
<path style="fill-rule:nonzero;fill:rgb(48.627451%,48.627451%,48.627451%);fill-opacity:1;stroke-width:2;stroke-linecap:round;stroke-linejoin:round;stroke:rgb(100%,100%,100%);stroke-opacity:1;stroke-miterlimit:4;" d="M 750.901042 470.5 L 746.901042 472.401042 L 743.401042 479.098958 L 740.299479 481.299479 L 738.098958 482.200521 L 735.299479 487 L 733.598958 489.098958 L 732.200521 489.5 L 729.200521 489 L 727.5 489.700521 L 725.799479 491.5 L 721.098958 490.901042 L 719.401042 492 L 715.799479 495 L 714.5 495.700521 L 712.700521 495.200521 L 709.799479 492.598958 L 708.299479 491.901042 L 706.401042 492.5 L 702.901042 496 L 701.299479 497.098958 L 698.299479 497.5 L 683.299479 495 L 680.401042 495.299479 L 677.799479 497.200521 L 673.200521 502.098958 L 671.098958 504 L 670.700521 506.299479 L 673.098958 508.200521 L 672 513.700521 L 668.5 515.700521 L 664.401042 513.700521 L 660.401042 511.098958 L 657.200521 507.299479 L 657.401042 499.200521 L 653.598958 493.901042 L 648.098958 492.598958 L 644.700521 497.200521 L 642.299479 501 L 640.901042 497.700521 L 639.700521 491 L 634.901042 487.299479 L 620.299479 485.401042 L 606.598958 478.5 L 606.700521 472.5 L 604.5 466.700521 L 604.598958 454.598958 L 610.401042 449.5 L 612.700521 441.598958 L 611.5 431.098958 L 619.700521 411.299479 L 616.799479 409.200521 L 611.799479 408.901042 L 610.700521 401 L 616.5 400.5 L 621.200521 397.299479 L 619.598958 390.598958 L 622.901042 388.5 L 631 391.5 L 638.401042 389 L 641.700521 380.401042 L 644.401042 377.901042 L 647.5 376.299479 L 645.799479 373.401042 L 644.098958 369.901042 L 648.299479 366.901042 L 652.901042 365.799479 L 662.098958 366.598958 L 671.299479 363.700521 L 673.799479 360.5 L 676.299479 358.200521 L 678.5 356.598958 L 680.098958 354.598958 L 684.299479 355.299479 L 686.401042 354.098958 L 688.098958 351.598958 L 689.700521 345.200521 L 689.200521 338 L 698.598958 339.5 L 704.598958 351.401042 L 705.901042 357.5 L 707.799479 363 L 709.901042 364.901042 L 711.098958 367.700521 L 711.401042 370.5 L 712.799479 372.5 L 719 380.299479 L 722.401042 382.299479 L 722.598958 386.700521 L 737 397.401042 L 738.299479 401.299479 L 740.098958 404.901042 L 744.700521 406.598958 L 749.700521 406.700521 L 754.5 409.700521 L 757.598958 415.700521 L 756.598958 422.401042 L 751.299479 425.5 L 749.098958 429.200521 L 749.098958 434.200521 L 749.700521 438 L 748 442.401042 L 746.5 448.700521 L 748.700521 454.5 L 752.098958 460.299479 L 750.799479 468.200521 Z M 750.901042 470.5 " transform="matrix(1.5,0,0,1.5,0,0)"/>
<path style="fill-rule:nonzero;fill:rgb(48.627451%,48.627451%,48.627451%);fill-opacity:1;stroke-width:2;stroke-linecap:round;stroke-linejoin:round;stroke:rgb(100%,100%,100%);stroke-opacity:1;stroke-miterlimit:4;" d="M 743.401042 118.299479 L 745.401042 125.401042 L 741.401042 128.901042 L 730.901042 143 L 728.401042 141.401042 L 726.598958 138.5 L 724.799479 138.598958 L 723.098958 139.5 L 719.098958 144 L 714.299479 148.299479 L 710.200521 151.401042 L 712.901042 155.700521 L 710.598958 159.901042 L 704.598958 161.901042 L 699.200521 165.598958 L 698.299479 171.098958 L 700.598958 175.700521 L 699.098958 181.799479 L 695.700521 180.901042 L 692.5 180.901042 L 691.799479 189.401042 L 688.5 190.401042 L 685 191 L 679.299479 197 L 675.401042 197 L 671.598958 195.299479 L 661.5 195.299479 L 660.401042 188.901042 L 661.200521 180.401042 L 653.098958 177.700521 L 643.401042 176.401042 L 639.401042 173.598958 L 641.799479 165.901042 L 635.299479 158.901042 L 627.098958 154 L 620.098958 151.799479 L 613.200521 154.401042 L 609.700521 148.598958 L 610.200521 141 L 609.598958 137.700521 L 611.098958 135.700521 L 610.700521 130.598958 L 612.5 126.700521 L 616.700521 130.598958 L 622.700521 126.098958 L 630.901042 127.401042 L 633 123.799479 L 635.200521 119 L 638.5 117.200521 L 638 108.200521 L 640.901042 104.299479 L 637 102.200521 L 632.200521 101.700521 L 623.901042 97.799479 L 624.299479 89 L 631.598958 84.401042 L 635.098958 76.098958 L 647 63 L 652.598958 62.098958 L 657.901042 63.598958 L 662.200521 68.401042 L 666.799479 67.098958 L 670.901042 64 L 674.5 65.799479 L 677.299479 69.700521 L 678.5 73.5 L 682.299479 80.700521 L 695.799479 85.598958 L 701.098958 86.200521 L 703.901042 90.401042 L 706.200521 94.5 L 707.401042 91.799479 L 709.901042 91.401042 L 712.700521 90.299479 L 714.901042 86.799479 L 717.299479 86.401042 L 718.401042 90.700521 L 720.901042 94.700521 L 723.901042 96.901042 L 725.5 99.401042 L 727.799479 101.5 L 727.901042 106.5 L 729.5 109 L 732.299479 107.098958 L 734.901042 108.700521 L 738.700521 114.401042 Z M 743.401042 118.299479 " transform="matrix(1.5,0,0,1.5,0,0)"/>
<path style="fill-rule:nonzero;fill:rgb(48.627451%,48.627451%,48.627451%);fill-opacity:1;stroke-width:2;stroke-linecap:round;stroke-linejoin:round;stroke:rgb(100%,100%,100%);stroke-opacity:1;stroke-miterlimit:4;" d="M 699.098958 181.799479 L 707 183.5 L 708.401042 191.200521 L 705.401042 193.401042 L 703.200521 196.598958 L 701.700521 201.700521 L 700.799479 206.700521 L 706 216.700521 L 705.700521 226.098958 L 703.401042 226.098958 L 701.098958 228 L 699.299479 233.700521 L 697 237.901042 L 691.901042 239.901042 L 688.598958 245.299479 L 690.299479 248.401042 L 693.299479 250.200521 L 691.901042 253.299479 L 688.5 254.098958 L 688.098958 257.401042 L 686.700521 261.098958 L 683.901042 261.5 L 681.799479 263.598958 L 684 266.700521 L 684.299479 270.401042 L 680.299479 271.401042 L 678.098958 273.700521 L 675.401042 274.799479 L 670.401042 272.200521 L 665.700521 268.901042 L 662.200521 267.5 L 658.598958 269.799479 L 654.700521 270.700521 L 650.598958 270.5 L 644.598958 266.401042 L 643.401042 268.5 L 641.799479 269.598958 L 640.700521 267.200521 L 641.401042 264.598958 L 637.401042 262.799479 L 633 264.799479 L 630.401042 264.901042 L 627.598958 264.299479 L 627.598958 270.799479 L 626.598958 273.700521 L 623.901042 274.901042 L 621.598958 277.700521 L 619.598958 280.799479 L 615.5 282.299479 L 611.299479 282.901042 L 605.5 278.200521 L 598.901042 276.700521 L 598.098958 271.799479 L 601.598958 268.799479 L 601.700521 266 L 599.5 265.200521 L 597.598958 263.200521 L 596.901042 259.901042 L 595 255 L 593 250.299479 L 593.299479 245.098958 L 595.5 240.299479 L 595.401042 236.598958 L 596.5 233.401042 L 601 232.901042 L 599.200521 224.901042 L 594 217.901042 L 594.200521 213 L 597.598958 209.401042 L 593.200521 204.401042 L 587.098958 202.098958 L 587.401042 197.098958 L 586.799479 192.299479 L 583.200521 190.598958 L 579 190 L 576.098958 185.598958 L 575.200521 180.598958 L 579.200521 179.5 L 583.299479 176.401042 L 587 172.5 L 589.200521 167.799479 L 590.098958 160.700521 L 595.098958 158.299479 L 598.799479 155.5 L 602.5 156.200521 L 606 155.5 L 610 156.200521 L 613.200521 154.401042 L 620.098958 151.799479 L 627.098958 154 L 635.299479 158.901042 L 641.799479 165.901042 L 639.401042 173.598958 L 643.401042 176.401042 L 653.098958 177.700521 L 661.200521 180.401042 L 660.401042 188.901042 L 661.5 195.299479 L 671.598958 195.299479 L 675.401042 197 L 679.299479 197 L 685 191 L 688.5 190.401042 L 691.799479 189.401042 L 692.5 180.901042 L 695.700521 180.901042 Z M 699.098958 181.799479 " transform="matrix(1.5,0,0,1.5,0,0)"/>
<path style="fill-rule:nonzero;fill:rgb(48.627451%,48.627451%,48.627451%);fill-opacity:1;stroke-width:2;stroke-linecap:round;stroke-linejoin:round;stroke:rgb(100%,100%,100%);stroke-opacity:1;stroke-miterlimit:4;" d="M 775.200521 125 L 784.200521 132.5 L 787.5 139.200521 L 792.098958 141.401042 L 798.401042 139.401042 L 804.799479 138.200521 L 808.5 140.5 L 810.098958 146.598958 L 797.299479 150.299479 L 788.799479 157.901042 L 796.598958 160.5 L 794.799479 165.401042 L 792.901042 168.098958 L 794.799479 169.799479 L 796.799479 172.799479 L 791.098958 181.098958 L 787.901042 184.799479 L 786.5 188.901042 L 786.598958 194.401042 L 789.401042 198.299479 L 791.5 202 L 787.598958 205.200521 L 783.200521 206.799479 L 783.299479 212.299479 L 783 216.598958 L 777.5 217.901042 L 771.901042 218.5 L 768.299479 221.200521 L 767.700521 226.598958 L 771.901042 230.700521 L 777.200521 232.799479 L 777 238 L 771.901042 240.901042 L 769.200521 245.598958 L 772.901042 250 L 768.5 253.598958 L 775.799479 256.200521 L 776.598958 261.5 L 769.098958 263.401042 L 759.598958 268.700521 L 755.799479 271.598958 L 758.200521 277 L 762.299479 281.901042 L 754.799479 285.299479 L 747.098958 287.401042 L 740.401042 284.901042 L 734 285.098958 L 728.799479 286.200521 L 723.799479 282.799479 L 714.700521 283.598958 L 711.598958 283.401042 L 708.799479 285.200521 L 705.401042 291.799479 L 700 294.901042 L 693.799479 296.098958 L 688.200521 293.598958 L 688.401042 288.799479 L 686.700521 285.5 L 675.098958 288.5 L 671.901042 281.098958 L 675.401042 274.799479 L 678.098958 273.700521 L 680.299479 271.401042 L 684.299479 270.401042 L 684 266.700521 L 681.799479 263.598958 L 683.901042 261.5 L 686.700521 261.098958 L 688.098958 257.401042 L 688.5 254.098958 L 691.901042 253.299479 L 693.299479 250.200521 L 690.299479 248.401042 L 688.598958 245.299479 L 691.901042 239.901042 L 697 237.901042 L 699.299479 233.700521 L 701.098958 228 L 703.401042 226.098958 L 705.700521 226.098958 L 706 216.700521 L 700.799479 206.700521 L 701.700521 201.700521 L 703.200521 196.598958 L 705.401042 193.401042 L 708.401042 191.200521 L 707 183.5 L 699.098958 181.799479 L 700.598958 175.700521 L 698.299479 171.098958 L 699.200521 165.598958 L 704.598958 161.901042 L 710.598958 159.901042 L 712.901042 155.700521 L 710.200521 151.401042 L 714.299479 148.299479 L 719.098958 144 L 723.098958 139.5 L 724.799479 138.598958 L 726.598958 138.5 L 728.401042 141.401042 L 730.901042 143 L 741.401042 128.901042 L 745.401042 125.401042 L 743.401042 118.299479 L 751.901042 113.401042 L 758.299479 117.5 L 764.598958 124.799479 Z M 775.200521 125 " transform="matrix(1.5,0,0,1.5,0,0)"/>
<path style="fill-rule:nonzero;fill:rgb(48.627451%,48.627451%,48.627451%);fill-opacity:1;stroke-width:2;stroke-linecap:round;stroke-linejoin:round;stroke:rgb(100%,100%,100%);stroke-opacity:1;stroke-miterlimit:4;" d="M 916.598958 194.098958 L 916.098958 193.901042 L 910.5 194.5 L 904.901042 194.598958 L 901.598958 190.299479 L 897.299479 185.799479 L 892.200521 185.5 L 887.5 187.700521 L 884.901042 190.700521 L 881.700521 191.799479 L 872.200521 187 L 864.401042 177.299479 L 861.401042 171.799479 L 857.299479 168.098958 L 851.401042 166.901042 L 845.098958 161 L 839.598958 153 L 837.098958 154 L 835.401042 158.200521 L 832.401042 159.700521 L 829.200521 160.098958 L 826.200521 162.5 L 822.200521 160.5 L 821.200521 155.200521 L 816.401042 148.5 L 810.098958 146.598958 L 808.5 140.5 L 804.799479 138.200521 L 798.401042 139.401042 L 792.098958 141.401042 L 787.5 139.200521 L 784.200521 132.5 L 775.200521 125 L 778.299479 125.799479 L 781.098958 124.598958 L 777.299479 118.598958 L 777.700521 108.799479 L 785.401042 101.700521 L 787.401042 97.299479 L 790.598958 95.5 L 797.901042 101.5 L 804.901042 101.401042 L 802.901042 90.5 L 806.901042 87.299479 L 811.901042 86.299479 L 820 89.299479 L 826.401042 84.598958 L 826.098958 77.700521 L 827.901042 71 L 831.901042 69.901042 L 835.5 73.098958 L 840.200521 72.200521 L 840.598958 68 L 839.700521 65.401042 L 842.700521 65.299479 L 845.598958 61.901042 L 844.799479 57 L 847.799479 54.5 L 852.098958 54.598958 L 858.401042 63.200521 L 868.799479 60.598958 L 879.901042 54.299479 L 888.700521 53.299479 L 892.5 59.700521 L 899.700521 85.200521 L 905.098958 89.401042 L 938 104.5 L 972.098958 110.401042 L 995 109.098958 L 994.598958 112.098958 L 994.098958 138.901042 L 994.5 141.700521 L 996.200521 145.598958 L 998.901042 150.700521 L 999 153.901042 L 997.598958 159.5 L 995 166.5 L 992.098958 172.401042 L 989.700521 174.901042 L 988.098958 175.799479 L 980.700521 182.799479 L 979.200521 185 L 978.299479 187.700521 L 978.200521 191.5 L 976 188.5 L 968.901042 184.5 L 965.598958 181.098958 L 961.5 179.5 L 954 178 L 950.5 178.700521 L 944.5 181.799479 L 941.5 182.5 L 931.098958 182.098958 L 927.799479 182.5 L 921.700521 186.098958 L 917.401042 192.200521 Z M 916.598958 194.098958 " transform="matrix(1.5,0,0,1.5,0,0)"/>
<path style="fill-rule:nonzero;fill:rgb(48.627451%,48.627451%,48.627451%);fill-opacity:1;stroke-width:2;stroke-linecap:round;stroke-linejoin:round;stroke:rgb(100%,100%,100%);stroke-opacity:1;stroke-miterlimit:4;" d="M 916.598958 194.098958 L 907.700521 217.401042 L 905.598958 220.901042 L 902.799479 223 L 891.901042 226 L 890.098958 227.200521 L 887.401042 227.598958 L 887.401042 229.098958 L 893 233.299479 L 894.098958 234.901042 L 893.901042 237.5 L 890.799479 247 L 888.598958 257.598958 L 887.5 259.598958 L 884.901042 262.598958 L 884.200521 265.098958 L 884.5 270 L 886.901042 279.901042 L 887.401042 284.401042 L 886.598958 299.200521 L 887.401042 302.401042 L 884.299479 305 L 883.098958 305 L 879.299479 306.5 L 875.901042 309.598958 L 871.200521 310.598958 L 866.5 308.799479 L 862.098958 306.5 L 857.901042 303.5 L 854.5 299.098958 L 850.700521 295.401042 L 846.598958 292.901042 L 842.299479 291.598958 L 836.299479 295.401042 L 822.299479 298.901042 L 814.401042 297.200521 L 807.098958 292.799479 L 803.401042 292.401042 L 800 291.098958 L 795 283.098958 L 788.700521 276.901042 L 781 274.401042 L 771.5 279.901042 L 762.299479 281.901042 L 758.200521 277 L 755.799479 271.598958 L 759.598958 268.700521 L 769.098958 263.401042 L 776.598958 261.5 L 775.799479 256.200521 L 768.5 253.598958 L 772.901042 250 L 769.200521 245.598958 L 771.901042 240.901042 L 777 238 L 777.200521 232.799479 L 771.901042 230.700521 L 767.700521 226.598958 L 768.299479 221.200521 L 771.901042 218.5 L 777.5 217.901042 L 783 216.598958 L 783.299479 212.299479 L 783.200521 206.799479 L 787.598958 205.200521 L 791.5 202 L 789.401042 198.299479 L 786.598958 194.401042 L 786.5 188.901042 L 787.901042 184.799479 L 791.098958 181.098958 L 796.799479 172.799479 L 794.799479 169.799479 L 792.901042 168.098958 L 794.799479 165.401042 L 796.598958 160.5 L 788.799479 157.901042 L 797.299479 150.299479 L 810.098958 146.598958 L 816.401042 148.5 L 821.200521 155.200521 L 822.200521 160.5 L 826.200521 162.5 L 829.200521 160.098958 L 832.401042 159.700521 L 835.401042 158.200521 L 837.098958 154 L 839.598958 153 L 845.098958 161 L 851.401042 166.901042 L 857.299479 168.098958 L 861.401042 171.799479 L 864.401042 177.299479 L 872.200521 187 L 881.700521 191.799479 L 884.901042 190.700521 L 887.5 187.700521 L 892.200521 185.5 L 897.299479 185.799479 L 901.598958 190.299479 L 904.901042 194.598958 L 910.5 194.5 L 916.098958 193.901042 Z M 916.598958 194.098958 " transform="matrix(1.5,0,0,1.5,0,0)"/>
<path style="fill-rule:nonzero;fill:rgb(48.627451%,48.627451%,48.627451%);fill-opacity:1;stroke-width:2;stroke-linecap:round;stroke-linejoin:round;stroke:rgb(100%,100%,100%);stroke-opacity:1;stroke-miterlimit:4;" d="M 852.098958 54.598958 L 847.799479 54.5 L 844.799479 57 L 845.598958 61.901042 L 842.700521 65.299479 L 839.700521 65.401042 L 840.598958 68 L 840.200521 72.200521 L 835.5 73.098958 L 831.901042 69.901042 L 827.901042 71 L 826.098958 77.700521 L 826.401042 84.598958 L 820 89.299479 L 811.901042 86.299479 L 806.901042 87.299479 L 802.901042 90.5 L 804.901042 101.401042 L 797.901042 101.5 L 790.598958 95.5 L 787.401042 97.299479 L 785.401042 101.700521 L 777.700521 108.799479 L 777.299479 118.598958 L 781.098958 124.598958 L 778.299479 125.799479 L 775.200521 125 L 764.598958 124.799479 L 758.299479 117.5 L 751.901042 113.401042 L 743.401042 118.299479 L 738.700521 114.401042 L 734.901042 108.700521 L 732.299479 107.098958 L 729.5 109 L 727.901042 106.5 L 727.799479 101.5 L 725.5 99.401042 L 723.901042 96.901042 L 720.901042 94.700521 L 718.401042 90.700521 L 717.299479 86.401042 L 714.901042 86.799479 L 712.700521 90.299479 L 709.901042 91.401042 L 707.401042 91.799479 L 706.200521 94.5 L 703.901042 90.401042 L 701.098958 86.200521 L 695.799479 85.598958 L 682.299479 80.700521 L 678.5 73.5 L 677.299479 69.700521 L 674.5 65.799479 L 670.901042 64 L 666.799479 67.098958 L 662.200521 68.401042 L 657.901042 63.598958 L 652.598958 62.098958 L 647 63 L 644.901042 54.200521 L 643.799479 47.5 L 639.598958 46.799479 L 637.200521 41.700521 L 636.799479 39.598958 L 681.799479 32.901042 L 687.098958 31 L 691.799479 30.200521 L 695 28.200521 L 696.799479 27.799479 L 704 27.799479 L 709.700521 26 L 724.799479 17 L 743.5 15.098958 L 747.700521 12.401042 L 759.299479 19.700521 L 776.098958 23.098958 L 779.5 25 L 783.299479 24.598958 L 786.200521 26.799479 L 785.401042 31.901042 L 788.799479 35.700521 L 797.799479 40 L 799.700521 41.700521 L 802.799479 47.200521 L 804.5 48.401042 L 834.901042 48.200521 L 844.299479 45.200521 L 847.901042 46.5 L 851.098958 53.200521 Z M 852.098958 54.598958 " transform="matrix(1.5,0,0,1.5,0,0)"/>
<path style="fill-rule:nonzero;fill:rgb(48.627451%,48.627451%,48.627451%);fill-opacity:1;stroke-width:2;stroke-linecap:round;stroke-linejoin:round;stroke:rgb(100%,100%,100%);stroke-opacity:1;stroke-miterlimit:4;" d="M 647 63 L 635.098958 76.098958 L 631.598958 84.401042 L 624.299479 89 L 623.901042 97.799479 L 632.200521 101.700521 L 637 102.200521 L 640.901042 104.299479 L 638 108.200521 L 638.5 117.200521 L 635.200521 119 L 633 123.799479 L 630.901042 127.401042 L 622.700521 126.098958 L 616.700521 130.598958 L 612.5 126.700521 L 610.700521 130.598958 L 611.098958 135.700521 L 609.598958 137.700521 L 610.200521 141 L 609.700521 148.598958 L 613.200521 154.401042 L 610 156.200521 L 606 155.5 L 602.5 156.200521 L 598.799479 155.5 L 595.098958 158.299479 L 590.098958 160.700521 L 589.200521 167.799479 L 587 172.5 L 583.299479 176.401042 L 579.200521 179.5 L 575.200521 180.598958 L 576.098958 185.598958 L 579 190 L 583.200521 190.598958 L 586.799479 192.299479 L 587.401042 197.098958 L 587.098958 202.098958 L 581.299479 201.700521 L 575.799479 199.598958 L 574.401042 194.401042 L 573.5 189.700521 L 568.901042 189.598958 L 564.401042 191.901042 L 560.299479 192.098958 L 556.098958 191.098958 L 550.598958 190.598958 L 545.200521 189 L 542.098958 186.098958 L 539.700521 183.401042 L 537.200521 183.5 L 536 180.901042 L 532.098958 180.901042 L 530.098958 185 L 521 181.5 L 512.098958 172.5 L 513.200521 166.598958 L 514.799479 160.401042 L 512.401042 159 L 510.200521 161.5 L 507.700521 161.098958 L 507.5 158.401042 L 499.299479 152.200521 L 498.5 147.401042 L 502 144.700521 L 505.401042 137.098958 L 502.5 127.401042 L 501.299479 124.901042 L 502.299479 124.700521 L 509.5 125.098958 L 513.098958 124.700521 L 516.098958 123.200521 L 519.098958 122.5 L 522.700521 120.901042 L 526.098958 118.799479 L 528.598958 116.401042 L 531.401042 114.401042 L 542.299479 114 L 548.901042 111.098958 L 552.598958 104.901042 L 552.901042 104.098958 L 558.200521 98.598958 L 563 95.901042 L 570.5 86.299479 L 571.799479 83.098958 L 573.299479 80.5 L 592.5 66.401042 L 593.700521 62.901042 L 596.5 58.700521 L 602.401042 52 L 607.901042 49 L 620.700521 45.700521 L 633.299479 40.098958 L 636.799479 39.598958 L 637.200521 41.700521 L 639.598958 46.799479 L 643.799479 47.5 L 644.901042 54.200521 Z M 647 63 " transform="matrix(1.5,0,0,1.5,0,0)"/>
<path style="fill-rule:nonzero;fill:rgb(48.627451%,48.627451%,48.627451%);fill-opacity:1;stroke-width:2;stroke-linecap:round;stroke-linejoin:round;stroke:rgb(100%,100%,100%);stroke-opacity:1;stroke-miterlimit:4;" d="M 227.098958 450.098958 L 228.700521 454.299479 L 231.799479 456.799479 L 234.598958 459.799479 L 235.598958 464.200521 L 235.098958 467.598958 L 233.200521 470.098958 L 233.200521 474.901042 L 236.299479 478.598958 L 231.700521 483.901042 L 227.700521 493.401042 L 227.901042 497.700521 L 227 501.200521 L 228.901042 505.098958 L 231.401042 508.5 L 232.299479 518.200521 L 236.5 526.098958 L 240.401042 528.598958 L 243.901042 532.200521 L 246.700521 532.799479 L 249.799479 532 L 251.799479 534.5 L 253.5 537.901042 L 271.598958 550.401042 L 273.5 554.098958 L 276.5 555.5 L 278.799479 556.700521 L 280.299479 559.401042 L 284.5 562.299479 L 281.401042 566.098958 L 277.299479 568.799479 L 296.401042 585.098958 L 293.901042 587.299479 L 293.200521 588.700521 L 292.5 592 L 290.901042 592.700521 L 289.5 590.598958 L 288.200521 589.598958 L 283.5 588.200521 L 277.098958 587.598958 L 272.5 589.799479 L 273.299479 601.401042 L 273.200521 603.200521 L 272.200521 604.799479 L 270.401042 605.700521 L 268.598958 605.299479 L 265 602.901042 L 264.401042 604.5 L 261.901042 605.799479 L 259.299479 608.401042 L 256.901042 608.598958 L 249.401042 603.098958 L 248.098958 602.901042 L 243.799479 606.901042 L 241.200521 608.200521 L 237.901042 609 L 234.598958 609.401042 L 231.700521 609.299479 L 229.401042 610.401042 L 225.799479 616.401042 L 223.200521 617.098958 L 217.901042 615.901042 L 212.598958 616 L 209.598958 617.098958 L 205.5 621.200521 L 203.098958 622.799479 L 197.799479 622.598958 L 187.299479 617.098958 L 171.5 616.598958 L 168.5 617.598958 L 163.700521 621.200521 L 160.799479 622.700521 L 157.401042 623.098958 L 155.799479 621.5 L 154.299479 619.098958 L 151.299479 617 L 148.5 617.200521 L 144.799479 618.799479 L 141.200521 621.098958 L 138.901042 623.299479 L 138.401042 624.901042 L 138.098958 628.799479 L 137.299479 630.799479 L 134.098958 633.299479 L 130.5 634.401042 L 123.799479 635.200521 L 92.200521 630.299479 L 96 627.299479 L 96.598958 623.299479 L 95.799479 618.799479 L 95.5 614.299479 L 96 613 L 97.799479 610.700521 L 98 608.5 L 96.901042 605.299479 L 96.401042 587.098958 L 97.299479 582.299479 L 96.901042 580.901042 L 94.901042 577.299479 L 94.598958 574.401042 L 94.799479 571.299479 L 96 565.901042 L 96.799479 565.200521 L 100.200521 563.901042 L 101.700521 559.799479 L 105.200521 554.098958 L 107 549.098958 L 106.901042 544.098958 L 104 539.598958 L 102.299479 538.799479 L 98.598958 538.598958 L 96.799479 537.799479 L 95.799479 536.200521 L 92.401042 528.098958 L 90.700521 520.799479 L 89.700521 518.299479 L 86.401042 515.598958 L 86 514 L 85.799479 509.401042 L 84.098958 504.5 L 82.901042 499.5 L 82.700521 494.401042 L 82.299479 492.098958 L 81 489.700521 L 80.799479 486.700521 L 82.901042 484.098958 L 85.598958 481.200521 L 89 481.799479 L 90.200521 477.5 L 94.901042 469.799479 L 98.901042 469.598958 L 101.598958 473.700521 L 106.299479 473.299479 L 111 475 L 115.098958 477.901042 L 120.098958 477.401042 L 125 475.901042 L 129.5 472.700521 L 137.401042 468.598958 L 140.901042 468.598958 L 143.901042 468.901042 L 147 468.401042 L 167.200521 474.901042 L 176.299479 473.401042 L 184.200521 467 L 192.799479 470.200521 L 198.098958 463.700521 L 201.200521 455.901042 L 207.098958 455.098958 L 211.401042 453.401042 L 216.799479 452.401042 L 219.901042 453.799479 L 222.799479 452.401042 L 224.598958 450 Z M 227.098958 450.098958 " transform="matrix(1.5,0,0,1.5,0,0)"/>
</g>
</svg>
